<svg xmlns="http://www.w3.org/2000/svg" viewBox="0 0 400 120" width="400" height="120">
  <defs>
    <linearGradient id="logoGrad" x1="0%" y1="0%" x2="100%" y2="100%">
      <stop offset="0%" style="stop-color:#9333ea"/>
      <stop offset="100%" style="stop-color:#7c3aed"/>
    </linearGradient>
  </defs>
  
  <!-- Zap Icon -->
  <g transform="translate(20, 20)">
    <path d="M20 70a1 1 0 0 1-.78-1.63l9.9-10.2a.5.5 0 0 1 .86.46l-1.92 6.02A1 1 0 0 0 29 66h7a1 1 0 0 1 .78 1.63l-9.9 10.2a.5.5 0 0 1-.86-.46l1.92-6.02A1 1 0 0 0 27 70z" 
          fill="url(#logoGrad)" 
          stroke="none"
          transform="scale(2.5) translate(-8, -18)"/>
  </g>
  
  <!-- Magneto Text -->
  <text x="110" y="78" 
        font-family="-apple-system, BlinkMacSystemFont, 'Segoe UI', Roboto, sans-serif" 
        font-weight="700" 
        font-size="72"
        fill="#111827">
    Magneto
  </text>
</svg>
